<svg xmlns="http://www.w3.org/2000/svg" viewBox="0 0 335.45 256.52"><defs><style>.cls-1{fill:#fff;fill-rule:evenodd;}</style></defs><title>basket</title><g id="Слой_2" data-name="Слой 2"><g id="Слой_1-2" data-name="Слой 1"><path class="cls-1" d="M145.11,16.84a9.87,9.87,0,0,0-14-13.95L65,69.06H9.87a9.87,9.87,0,0,0,0,19.74H11.6L35.3,223.92a39.47,39.47,0,0,0,38.86,32.6H261.28a39.47,39.47,0,0,0,38.87-32.6L323.85,88.8h1.73a9.87,9.87,0,1,0,0-19.74h-55.1L204.3,2.89a9.86,9.86,0,1,0-14,14l52.22,52.22H92.88Zm22.62,101.55a9.86,9.86,0,0,1,9.86,9.87v59.19a9.87,9.87,0,1,1-19.73,0V128.26A9.87,9.87,0,0,1,167.73,118.39Zm78.79,11.49a9.86,9.86,0,1,0-19.46-3.25l-9.86,59.2a9.86,9.86,0,1,0,19.46,3.25ZM97,118.52a9.88,9.88,0,0,0-8.11,11.36l9.87,59.19a9.86,9.86,0,1,0,19.46-3.24l-9.86-59.2A9.88,9.88,0,0,0,97,118.52Z"/></g></g></svg>