<svg xmlns="http://www.w3.org/2000/svg" viewBox="0 0 394.53 478"><title>cart</title><g id="857a0c07-8aa7-4c42-80cf-25571e962828" data-name="Слой 2"><g id="4740dfd0-2306-4529-8737-2f797b499e1f" data-name="Слой 1"><path d="M368.07,122.8a9.92,9.92,0,0,0-10-9.09H282.14V84.93a84.93,84.93,0,1,0-169.85,0v28.78H36.35a10.07,10.07,0,0,0-10,9.09L.18,423.75A50,50,0,0,0,50,478H344.49a50,50,0,0,0,49.86-54.25ZM132.27,84.93a64.95,64.95,0,1,1,129.89,0v28.78H132.27Zm234.3,363.39a29.56,29.56,0,0,1-22.08,9.7H49.94a30,30,0,0,1-29.88-32.57L45.44,133.69h66.85V196a34,34,0,1,0,20,0V133.59H262.16V196a34,34,0,1,0,20,0V133.59h66.75l25.38,291.75A29.67,29.67,0,0,1,366.57,448.32ZM120.78,214.62a11.59,11.59,0,0,0,3,0,14,14,0,1,1-3,0Zm149.87,0a11.59,11.59,0,0,0,3,0,14,14,0,1,1-3,0Z"/></g></g></svg>