<svg xmlns="http://www.w3.org/2000/svg" viewBox="0 0 467.28 413.27"><title>consult</title><g id="fe267505-b0c0-472d-b5ef-8ba36aaeb9ac" data-name="Слой 2"><g id="354f1d62-6599-4833-97ed-50954d86d81c" data-name="Слой 1"><path d="M283.6,170.61V323.75a22.73,22.73,0,0,1-22.42,22.41H137.93L64.16,394.71V346.16H32.41A22.72,22.72,0,0,1,10,323.75V170.61A22.72,22.72,0,0,1,32.41,148.2H260.25C273.32,147.26,283.6,157.54,283.6,170.61Z" style="fill:none;stroke:#000;stroke-miterlimit:10;stroke-width:20px"/><line x1="78.17" y1="203.29" x2="215.43" y2="203.29" style="fill:none;stroke:#000;stroke-miterlimit:10;stroke-width:20px"/><line x1="50.15" y1="248.11" x2="243.44" y2="248.11" style="fill:none;stroke:#000;stroke-miterlimit:10;stroke-width:20px"/><line x1="78.17" y1="292" x2="215.43" y2="292" style="fill:none;stroke:#000;stroke-miterlimit:10;stroke-width:20px"/><line x1="418.06" y1="65.09" x2="224.77" y2="65.09" style="fill:none;stroke:#000;stroke-miterlimit:10;stroke-width:20px"/><line x1="418.06" y1="109.91" x2="224.77" y2="109.91" style="fill:none;stroke:#000;stroke-miterlimit:10;stroke-width:20px"/><line x1="390.05" y1="154.74" x2="307.87" y2="154.74" style="fill:none;stroke:#000;stroke-miterlimit:10;stroke-width:20px"/><path d="M283.6,208h46.68l73.77,48.56V208h30.82a22.72,22.72,0,0,0,22.41-22.41V32.41A22.72,22.72,0,0,0,434.87,10H207a22.72,22.72,0,0,0-22.41,22.41V147.26" style="fill:none;stroke:#000;stroke-miterlimit:10;stroke-width:20px"/></g></g></svg>