<svg xmlns="http://www.w3.org/2000/svg" viewBox="0 0 399.58 373.25">

            <path class="cls-1"
                  d="M395.88,309.92A622.73,622.73,0,0,0,321.26,49.3C306.41,27,265.31,19.12,260.16,18.22L231,3.65a1.91,1.91,0,0,1-.73-.28,139.76,139.76,0,0,0-61,0,2,2,0,0,1-.74.28L139.42,18.21c-5.18.91-46.26,8.83-61.2,31.25h0A623,623,0,0,0,3.7,309.93L.05,332.55a3.69,3.69,0,0,0,3.05,4.24l40.69,6.78a4.07,4.07,0,0,0,.61.08,3.68,3.68,0,0,0,3.5-2.54l7.27-21.79h0A459.21,459.21,0,0,0,93.41,235.7a680.89,680.89,0,0,0,6.48,104.56v29.29a3.7,3.7,0,0,0,3.7,3.7H296a3.72,3.72,0,0,0,3.7-3.7V340.24a681,681,0,0,0,6.48-104.56,460.42,460.42,0,0,0,38.24,83.61l7.27,21.8a3.71,3.71,0,0,0,3.51,2.56,3.05,3.05,0,0,0,.6-.06l40.7-6.77a3.75,3.75,0,0,0,2.41-1.51,3.66,3.66,0,0,0,.63-2.76ZM199.79,68.71a72.69,72.69,0,0,1-21.95-36.6,101.62,101.62,0,0,1,43.91,0,72.77,72.77,0,0,1-22,36.6Zm33-55.91,22,11c-5.55,25.42-27.45,37.28-42.05,42.46h0a98.88,98.88,0,0,0,20-53.46Zm-7.24-2.88a111.21,111.21,0,0,1-2,14.87,108.83,108.83,0,0,0-47.45,0,113.11,113.11,0,0,1-2-14.87,135.8,135.8,0,0,1,51.54,0Zm-58.78,2.9h0a99,99,0,0,0,20.05,53.5c-14.59-5.18-36.52-17-42.07-42.49Zm-124.89,323L8,330.12l2.51-15.54,36.46,6.07Zm8-22.1-38.65-6.44A615.44,615.44,0,0,1,84.47,53.43C96,36.21,127.52,28.27,137.83,26.1c8.54,36.95,47,48.1,58.26,50.52V336.24H106.78a710.3,710.3,0,0,1,.52-188.17,3.7,3.7,0,1,0-7.33-1c-3,21.1-4.79,41.62-5.71,61a457.28,457.28,0,0,1-44.33,105.7Zm146.17,52.16H107.3v-22.2h88.79Zm96.2,0h-88.8v-22.2h88.8ZM299.69,147a3.7,3.7,0,0,0-7.33,1,710.72,710.72,0,0,1,.45,188.17H203.5V76.59c11.27-2.45,49.72-13.56,58.26-50.52,10.3,2.18,41.84,10.06,53.28,27.19h0a615.3,615.3,0,0,1,73.28,254l-38.66,6.44A456.79,456.79,0,0,1,305.37,208c-.93-19.33-2.72-39.85-5.68-61Zm58,188.75-5-15.09,36.47-6.07,2.51,15.53Z"/>

</svg>