<svg xmlns="http://www.w3.org/2000/svg" viewBox="0 0 382.5 283.68"><defs><style>.cls-1{fill:#050505;}</style></defs><title>sew</title><g id="Слой_2" data-name="Слой 2"><g id="Слой_1-2" data-name="Слой 1"><path class="cls-1" d="M382.5,37v98.7c0,6.8-6.8,12.32-12.31,12.32h0a12.32,12.32,0,0,1-12.31-12.32V37c0-6.8,6.8-12.31,12.31-12.31h0A12.31,12.31,0,0,1,382.5,37Z"/><path class="cls-1" d="M138.91,9.28h24.67a9.23,9.23,0,0,1,9.23,9.23H129.64a9.24,9.24,0,0,1,9.27-9.23Z"/><path class="cls-1" d="M78.77,9.28h3.08a9.24,9.24,0,0,1,9.08,9.23H69.54a9.24,9.24,0,0,1,9.23-9.23Z"/><path class="cls-1" d="M277.64,0a4.62,4.62,0,0,1,4.62,4.62V18.51H273V4.62A4.62,4.62,0,0,1,277.64,0Z"/><path class="cls-1" d="M357.79,240.5v43.18H6.31V240.5Z"/><path class="cls-1" d="M344.88,24.67H37.72A6.51,6.51,0,0,0,31,31V143.78a6.49,6.49,0,0,0,6.75,6.27H117a6.49,6.49,0,0,0,6.75-6.27V125a6.51,6.51,0,0,1,6.59-6.27H252.05A6.51,6.51,0,0,1,258.8,125v81.62h92.82V31a6.51,6.51,0,0,0-6.75-6.28ZM274.56,77.08a21.58,21.58,0,1,1,6.32,15.27A21.56,21.56,0,0,1,274.56,77.08Zm40.09,77.08a10.77,10.77,0,1,1,7.62-3.16,10.79,10.79,0,0,1-7.62,3.16Z"/><path class="cls-1" d="M80.31,206V184.38H77.23Z"/><path class="cls-1" d="M80.31,170h3.08v3.08H80.31Z"/><path class="cls-1" d="M83.39,166.9h3.08v9.23H83.39Z"/><path class="cls-1" d="M74.15,179.25H71.07v-3.08h3.08Z"/><path class="cls-1" d="M71.07,182.33H68V173.1h3.08Z"/><path class="cls-1" d="M357.83,218.92v15.43H7.89a7.9,7.9,0,0,1,0-15.79H357.83Z"/><path class="cls-1" d="M74.15,156.64h6.16v27.74H74.15Z"/></g></g></svg>