<svg xmlns="http://www.w3.org/2000/svg" viewBox="0 0 407.28 407.28"><defs><style>.cls-1{fill:#fff;fill-rule:evenodd;}</style></defs><title>wh</title><g id="Слой_2" data-name="Слой 2"><g id="Слой_1-2" data-name="Слой 1"><path class="cls-1" d="M129.34,80.57l-.59.14c-20.22,6.22-33.87,16.93-41.29,30.64S79,141.4,82.28,158.41c6.64,34,30.8,71.69,61.42,103s67.73,56.25,102,63.34c17.12,3.55,33.6,2.55,47.8-4.88s25.7-21.24,33-41.88h0a4.76,4.76,0,0,0-1.92-5.48L256.77,230c-.15-.11-.3-.2-.45-.29l-.29-.3h-.15l-.3-.15h-.14a4.33,4.33,0,0,0-.75-.44h-.14a1.5,1.5,0,0,0-.3,0h-.15a2.69,2.69,0,0,0-1.77,0,4.68,4.68,0,0,0-2.22,1l-.15.3a4.55,4.55,0,0,0-.74.89l-17.46,17.31c-30.33-14.27-52.82-39.29-72.82-73.11l16.87-16.87h0a2.76,2.76,0,0,0,.3-.29h.15c.05-.1.1-.2.14-.3a.67.67,0,0,0,.15-.14c.06-.1.1-.2.15-.3v-.14l.15-.15.15-.29.15-.15v-.59l.14-.14a1.5,1.5,0,0,0,0-.3.33.33,0,0,0,0-.14,1.5,1.5,0,0,0,0-.3.38.38,0,0,0,0-.15,1.4,1.4,0,0,0,0-.29.38.38,0,0,0,0-.15,1.4,1.4,0,0,0,0-.29.33.33,0,0,0,0-.14,2.75,2.75,0,0,0-.14-.3v-.15l-.15-.29v-.15l-.3-.29v-.15l-.15-.14a4.44,4.44,0,0,0-.59-.89c-.05-.05-.09-.1-.15-.15L134.23,82.84a4.75,4.75,0,0,0-3.85-2.23,6,6,0,0,0-1,0Zm-1.18,10.36,38.33,63.49-16.87,16.72a4.72,4.72,0,0,0-.74,5.77c21.63,37.46,46.84,66.06,82,81.55a4.72,4.72,0,0,0,5.18-1L254,239.52l62.3,38.92c-6.66,16.88-16,27.35-27.08,33.15-11.83,6.19-26,7.23-41.58,4-31.2-6.47-67.56-30.47-97.23-60.83s-52.7-67.07-58.76-98.12c-3-15.52-1.81-29.4,4.29-40.7,5.72-10.56,15.86-19.29,32.27-25Z"/><path class="cls-1" d="M203.64,0C91.26,0,0,91.21,0,203.64A203.57,203.57,0,0,0,34.65,317.23L10.71,397.12A4.74,4.74,0,0,0,16.8,403l78.25-27a202.6,202.6,0,0,0,108.59,31.34c112.43,0,203.64-91.21,203.64-203.64S316.07,0,203.64,0Zm0,9.47A194.17,194.17,0,1,1,98.24,366.75a4.73,4.73,0,0,0-4.12-.5L22.44,391l21.92-73.18a4.7,4.7,0,0,0-.62-4A194.16,194.16,0,0,1,203.64,9.48Z"/></g></g></svg>